<svg width="154" height="25" viewBox="0 0 154 25" fill="none" xmlns="http://www.w3.org/2000/svg">
<path d="M55.0132 6.46622C55.3733 6.7885 55.6556 7.16449 55.8602 7.59006C56.0893 8.04456 56.2079 8.51558 56.2079 9.00726C56.2079 10.2881 55.7292 11.3376 54.7677 12.1515C53.8595 12.9407 52.763 13.3332 51.4823 13.3332C50.2017 13.3332 49.1175 12.9407 48.1969 12.1515C47.2232 11.3252 46.7363 10.2757 46.7363 9.00726C46.7363 8.51558 46.8304 8.04869 47.0227 7.61072C47.2027 7.20994 47.4727 6.82982 47.8287 6.46622H46.0817V4.50776H50.2713V2.93768H52.6934V4.50776H56.8053V6.46622H55.0173H55.0132ZM47.3459 14.4612H49.5921V18.1674H61.85V20.1672H48.6715C48.2215 20.1672 47.8983 20.0556 47.6937 19.8366C47.4646 19.6053 47.3459 19.2293 47.3459 18.7128V14.4653V14.4612ZM49.7271 7.3215C49.2402 7.78839 48.9988 8.35031 48.9988 9.01139C48.9988 9.67248 49.2402 10.2137 49.7271 10.6806C50.214 11.1475 50.7909 11.3789 51.4578 11.3789C52.1247 11.3789 52.6729 11.1475 53.1885 10.6806C53.7244 10.2013 53.9945 9.64769 53.9945 9.01139C53.9945 8.3751 53.7244 7.78839 53.1885 7.3215C52.6893 6.88353 52.1124 6.66041 51.4578 6.66041C50.8032 6.66041 50.214 6.8794 49.7271 7.3215ZM61.715 10.0774V14.9281H59.4688V3.84667H61.715V8.05695H63.9816V10.0733H61.715V10.0774Z" fill="white"/>
<path d="M71.5875 11.4119H64.538V9.39564H81.0427V11.4119H73.8009V14.6141H71.5916V11.4119H71.5875ZM77.966 9.60636V5.84231H65.1108V3.84253H80.2122V9.60636H77.966ZM77.966 16.0271H65.1108V14.0274H80.2122V20.2539H77.966V16.023V16.0271Z" fill="white"/>
<path d="M99.5933 14.957C99.5933 15.552 99.5196 16.085 99.3683 16.556C99.221 17.0312 99.0246 17.4485 98.7791 17.8079C98.5336 18.1715 98.2472 18.4773 97.9199 18.7334C97.5926 18.9896 97.253 19.1962 96.9011 19.3573C96.5493 19.5185 96.1933 19.6383 95.8333 19.7168C95.4732 19.7953 95.1295 19.8325 94.8104 19.8325H83.3381V16.8287H94.8104C95.3832 16.8287 95.8251 16.6593 96.1442 16.3205C96.4593 15.9817 96.6188 15.5272 96.6188 14.957C96.6188 14.6802 96.5779 14.424 96.492 14.1968C96.4061 13.9654 96.2874 13.7671 96.1319 13.5976C95.9765 13.4282 95.7842 13.296 95.5591 13.2051C95.3341 13.1142 95.0845 13.0647 94.8104 13.0647H87.9696C87.4909 13.0647 86.9713 12.9779 86.4148 12.8043C85.8584 12.6308 85.3429 12.3499 84.8642 11.9656C84.3855 11.5813 83.9927 11.0773 83.6736 10.4534C83.3585 9.82947 83.199 9.06922 83.199 8.16849C83.199 7.26777 83.3585 6.50752 83.6736 5.88775C83.9886 5.26799 84.3855 4.76391 84.8642 4.37552C85.3388 3.98714 85.8584 3.70618 86.4148 3.53264C86.9713 3.35911 87.4909 3.27234 87.9696 3.27234H98.0917V6.27614H87.9696C87.4049 6.27614 86.9631 6.44968 86.648 6.79674C86.333 7.14381 86.1734 7.60244 86.1734 8.17263C86.1734 8.74281 86.333 9.20557 86.648 9.54024C86.9631 9.87492 87.4049 10.0443 87.9696 10.0443H94.8309C95.15 10.0526 95.4896 10.098 95.8496 10.1765C96.2097 10.2592 96.5656 10.3831 96.9175 10.5525C97.2735 10.7219 97.609 10.9368 97.9281 11.193C98.2472 11.4533 98.5336 11.759 98.7791 12.1226C99.0287 12.4862 99.2251 12.8994 99.3683 13.3704C99.5115 13.8414 99.5851 14.3703 99.5851 14.9653L99.5933 14.957Z" fill="white"/>
<path d="M116.712 6.27205H110.157V19.8325H107.183V6.27205H100.62V3.26825H116.712V6.27205Z" fill="white"/>
<path d="M128.659 3.84668V5.53658C128.659 9.67662 127.57 12.6969 125.394 14.5976C123.855 15.9569 121.879 16.6924 119.457 16.8081V14.5976C121.777 14.5191 123.524 13.6844 124.702 12.0937C125.815 10.5939 126.376 8.51146 126.376 5.84646H119.707V3.84668H128.659ZM132.308 8.89158V3.84668H134.554V20.2622H132.308V10.8914H127.178V8.89158H132.308Z" fill="white"/>
<path d="M143.331 5.84646H137.95V3.84668H145.462V10.9657H140.062V14.5562H147.479V16.556H139.297C138.846 16.556 138.515 16.4445 138.298 16.2255C138.069 15.9941 137.95 15.5975 137.95 15.0438V8.99074H143.331V5.84646ZM150.92 11.0856H149.153V20.2622H147.078V3.84668H149.153V9.08577H150.92V3.84668H153.052V20.2622H150.92V11.0856Z" fill="white"/>
<path d="M29.4582 3.30542H11.9068L8.59192 0H26.1284L29.4582 3.30542Z" fill="#B1AFCE"/>
<path d="M11.9556 8.67673H0L8.50145 0H20.4571L11.9556 8.67673Z" fill="white"/>
<path d="M8.47785 16.8969L0 8.67676H11.9643L20.4571 16.9403L8.47785 16.8969Z" fill="#D6DBEF"/>
<path d="M11.0469 19.8325H28.5888L31.9131 23.1379H14.3861L11.0469 19.8325Z" fill="#8F96CA"/>
<path d="M28.5494 14.4612H40.5051L32.0036 23.1379H20.048L28.5494 14.4612Z" fill="#BBBDDF"/>
<path d="M32.0359 5.83007L40.5051 14.4612L28.5171 14.4156L20.048 5.78448L32.0359 5.83007Z" fill="#D6DBEF"/>
</svg>
